<?xml version="1.0" standalone="no"?>
<!DOCTYPE svg PUBLIC "-//W3C//DTD SVG 20010904//EN"
 "http://www.w3.org/TR/2001/REC-SVG-20010904/DTD/svg10.dtd">
<svg version="1.0" xmlns="http://www.w3.org/2000/svg"
 width="400.000000pt" height="400.000000pt" viewBox="0 0 400.000000 400.000000"
 preserveAspectRatio="xMidYMid meet">
<metadata>
Created by potrace 1.14, written by Peter Selinger 2001-2017
</metadata>
<g transform="translate(0.000000,400.000000) scale(0.100000,-0.100000)"
fill="#000000" stroke="none">
<path d="M1747 3765 c-31 -36 -44 -45 -70 -45 -18 1 -43 7 -57 15 -36 20 -40
19 -40 -15 0 -70 -57 -117 -131 -107 l-39 5 0 -39 c0 -35 -4 -40 -40 -59 -21
-11 -53 -20 -71 -20 -31 0 -31 0 -15 -25 38 -58 7 -103 -79 -113 -49 -5 -56
-19 -25 -47 24 -21 26 -62 5 -92 -8 -12 -38 -29 -65 -38 -55 -18 -57 -21 -36
-44 19 -22 35 -86 29 -113 -3 -13 -15 -31 -27 -40 l-21 -17 21 -23 c47 -51 58
-117 29 -172 -9 -16 -14 -30 -13 -31 2 -1 14 -8 26 -14 13 -7 30 -28 38 -47
12 -30 12 -39 -1 -70 -14 -35 -14 -37 9 -55 29 -23 57 -80 58 -120 2 -46 -21
-76 -80 -110 l-55 -31 6 -51 c3 -29 19 -95 36 -149 37 -115 71 -152 147 -164
40 -6 65 -21 158 -96 131 -105 271 -203 321 -224 l35 -14 0 -68 c0 -65 -15
-113 -27 -84 -7 19 -50 14 -70 -7 -10 -11 -32 -25 -48 -31 -54 -21 -227 -61
-364 -86 -74 -13 -137 -26 -139 -29 -3 -3 -16 -54 -28 -113 -13 -59 -34 -159
-47 -222 -14 -63 -28 -139 -32 -167 -6 -50 -6 -53 19 -65 16 -7 25 -17 22 -25
-12 -29 -49 -332 -50 -399 -1 -60 4 -79 29 -129 19 -37 42 -66 62 -78 44 -25
114 -24 156 2 l33 20 -4 -59 c-3 -36 0 -60 5 -60 11 0 23 55 23 105 0 25 28
58 176 209 129 131 179 175 187 167 6 -6 21 -11 32 -11 27 0 70 -35 55 -45 -5
-3 -10 -37 -10 -74 0 -80 11 -94 66 -89 34 3 39 7 47 38 5 19 7 52 4 74 -5 38
-5 38 25 32 17 -3 47 -6 67 -6 l36 0 -3 -59 c-3 -54 -2 -61 22 -76 18 -12 36
-15 65 -10 l39 6 4 66 c2 36 0 70 -3 75 -4 6 -25 8 -50 4 l-44 -6 40 14 c22 7
54 21 70 30 17 9 37 16 45 16 8 0 28 14 45 30 l31 30 65 -72 c36 -40 88 -102
115 -138 97 -129 192 -203 278 -217 33 -5 36 -9 42 -49 4 -27 11 -44 20 -44
13 0 12 33 -1 77 -3 9 13 12 53 10 32 0 63 2 70 7 7 4 28 39 48 77 33 67 35
77 41 202 l5 132 -38 94 c-29 72 -34 96 -24 99 7 3 28 19 47 36 l33 31 -19 55
c-10 31 -24 94 -30 140 -7 47 -28 153 -49 235 l-37 150 -70 8 c-39 4 -168 21
-289 37 -191 25 -223 32 -255 54 -42 30 -57 32 -65 11 -3 -8 -12 -12 -21 -9
-20 8 -22 164 -2 164 23 0 189 114 325 223 104 83 140 107 164 107 70 0 111
40 208 204 75 128 76 131 37 167 -17 17 -55 43 -84 57 -29 15 -53 32 -54 37
-1 6 -6 20 -11 31 -11 23 13 84 33 84 6 0 7 19 3 49 -5 41 -3 56 15 85 12 19
31 38 41 41 20 6 28 25 11 25 -5 0 -14 15 -21 34 -12 36 -3 71 24 99 14 14 14
19 0 52 -18 44 -12 80 21 129 l24 36 -25 29 c-38 46 -47 81 -32 127 13 39 13
39 -25 76 -36 34 -39 41 -35 79 3 38 1 44 -24 58 -31 18 -40 37 -40 86 0 31
-2 33 -43 40 -48 7 -90 35 -100 65 -5 16 -13 19 -48 14 -51 -6 -98 19 -128 70
-18 32 -22 33 -64 28 -50 -5 -99 11 -119 39 -12 18 -15 18 -46 3 -58 -29 -110
-29 -153 0 l-38 26 -26 -20 c-43 -34 -87 -36 -144 -6 -28 14 -54 26 -58 26 -4
0 -24 -20 -44 -45z m642 -905 c32 -40 34 -60 6 -60 -53 0 -243 -109 -230 -131
4 -5 20 2 37 16 52 44 211 113 237 103 5 -2 87 -97 181 -213 129 -158 179
-211 199 -216 39 -8 121 -67 121 -86 0 -22 -92 -184 -139 -245 -37 -49 -86
-74 -119 -64 -14 5 -45 -15 -113 -71 -301 -249 -407 -304 -579 -304 -100 0
-188 24 -271 74 -69 41 -243 171 -324 242 -50 44 -67 53 -98 53 -75 0 -105 37
-148 179 -39 128 -36 149 19 177 39 19 61 47 193 244 144 214 150 222 177 216
46 -11 124 -44 179 -74 29 -17 55 -26 58 -21 7 13 -90 67 -169 95 -36 12 -69
25 -72 29 -3 3 8 26 26 51 l31 46 383 0 383 0 32 -40z m-468 -1290 c64 -9 160
-2 227 16 21 6 22 4 22 -70 0 -59 3 -78 15 -82 22 -9 19 -19 -17 -59 -50 -58
-100 -78 -178 -73 -73 6 -119 25 -167 71 -37 35 -39 42 -18 63 10 11 15 37 15
86 0 61 2 69 16 64 9 -4 48 -11 85 -16z m-171 -139 c0 -5 17 -31 39 -58 52
-66 120 -97 216 -97 56 0 79 5 115 24 39 22 91 78 118 127 8 14 12 13 38 -5
37 -27 228 -59 533 -90 l75 -7 42 -170 c24 -93 43 -186 44 -205 0 -19 9 -69
20 -110 l20 -75 -28 -23 c-52 -43 -241 -88 -322 -77 -100 13 -101 15 -120 150
-14 101 -17 112 -32 97 -8 -8 -6 -43 8 -127 20 -130 21 -131 111 -142 l41 -5
9 -82 c5 -44 8 -83 7 -84 -1 -2 -22 7 -46 21 -24 13 -92 50 -153 82 -60 32
-126 68 -145 81 -19 13 -41 24 -48 24 -7 0 -38 12 -69 27 -56 28 -83 64 -64
87 11 14 -28 101 -54 120 -14 10 -15 17 -6 34 12 22 5 52 -12 52 -6 0 -21 -9
-33 -21 -32 -30 -169 -34 -201 -6 -12 11 -29 17 -37 14 -22 -9 -20 -44 3 -59
19 -12 19 -12 0 -36 -10 -14 -19 -37 -19 -52 0 -26 -3 -25 -66 36 -46 45 -74
64 -91 64 -14 0 -31 7 -37 16 -7 8 -31 18 -54 21 -38 5 -42 4 -42 -16 0 -23
52 -53 76 -44 7 2 15 -8 19 -25 4 -18 26 -47 60 -75 54 -48 90 -58 114 -34 10
10 11 6 5 -18 -8 -32 -20 -44 -74 -72 -19 -10 -53 -30 -75 -44 -79 -51 -238
-140 -243 -135 -2 3 -1 33 2 68 l7 63 45 -4 c25 -2 50 1 54 5 5 5 12 60 16
122 6 100 5 112 -10 112 -13 0 -16 -13 -17 -80 -1 -44 -3 -84 -4 -90 -1 -5 -3
-17 -4 -26 -1 -15 -12 -16 -93 -10 -107 8 -243 38 -288 63 -18 10 -33 21 -33
23 -3 27 96 506 106 517 2 1 57 12 123 23 214 38 390 88 419 120 19 21 35 26
35 11z m300 -519 c34 -17 80 -73 80 -98 0 -30 -169 -54 -249 -34 -28 6 -53 15
-56 19 -2 5 1 25 6 46 9 32 13 36 21 22 5 -9 20 -17 33 -17 20 0 25 5 25 25 0
22 -9 30 -32 26 -17 -2 -7 10 15 19 37 15 120 11 157 -8z m-322 -66 c17 -17
32 -34 32 -38 0 -20 -39 -3 -84 36 -37 32 -47 48 -42 61 7 20 7 20 94 -59z
m369 -92 c-3 -3 -12 -4 -19 -1 -8 3 -5 6 6 6 11 1 17 -2 13 -5z m-190 -10 c-3
-3 -12 -4 -19 -1 -8 3 -5 6 6 6 11 1 17 -2 13 -5z m136 -1 c-7 -2 -21 -2 -30
0 -10 3 -4 5 12 5 17 0 24 -2 18 -5z m-58 -29 c44 3 95 8 113 12 l32 6 0 -45
0 -45 -50 -7 c-59 -8 -75 -29 -65 -84 9 -47 39 -79 84 -88 l36 -7 -40 -12
c-52 -16 -140 -17 -207 -2 -50 11 -51 12 -23 18 73 16 92 45 82 122 -6 46 -19
58 -62 58 -64 1 -75 9 -75 55 l0 43 48 -15 c33 -10 71 -13 127 -9z m-224 -40
c-12 -16 -18 -31 -13 -36 5 -5 41 -12 80 -15 82 -7 90 -10 93 -43 5 -53 -1
-70 -31 -85 -49 -25 -152 -13 -193 23 -16 14 -19 14 -34 -8 -38 -54 -214 -238
-307 -321 -97 -87 -114 -95 -171 -89 -73 8 -128 93 -129 200 0 71 41 381 52
392 4 3 54 -4 112 -18 58 -13 115 -24 128 -24 25 0 27 -20 16 -118 l-7 -52
-103 -68 c-57 -37 -103 -70 -103 -74 -2 -18 26 -5 97 44 86 58 382 238 454
276 26 14 53 31 59 39 22 26 21 4 0 -23z m474 2 c33 -15 67 -31 76 -36 212
-113 321 -173 394 -216 50 -30 96 -54 103 -54 24 0 11 16 -37 42 -45 25 -50
31 -60 78 -6 28 -11 73 -11 100 0 48 1 50 28 50 16 0 66 9 111 21 46 12 86 17
90 12 19 -21 53 -124 62 -188 16 -113 3 -223 -38 -307 l-34 -71 -100 7 c-68 4
-112 12 -137 25 -53 27 -125 93 -179 165 -54 70 -201 240 -212 244 -4 1 -22
-11 -39 -27 -38 -37 -68 -45 -128 -36 -60 9 -86 35 -82 83 3 36 4 37 56 44 90
13 113 38 75 81 -10 11 -13 18 -8 15 6 -2 37 -16 70 -32z m-398 -252 c-3 -3
-12 -4 -19 -1 -8 3 -5 6 6 6 11 1 17 -2 13 -5z m33 -85 c0 -48 -1 -49 -30 -49
-25 0 -30 4 -30 24 0 13 -3 37 -6 53 -6 28 -5 29 30 25 36 -4 36 -4 36 -53z
m258 -6 c-3 -48 -3 -48 -38 -48 -34 0 -35 1 -38 42 -3 44 -4 43 66 52 10 1 12
-12 10 -46z"/>
<path d="M1493 2515 c-18 -8 -33 -19 -33 -25 0 -7 6 -9 13 -6 37 15 88 29 92
24 3 -3 -1 -18 -10 -34 -18 -34 -19 -58 -4 -86 17 -32 4 -32 -34 2 -20 17 -38
27 -41 22 -8 -14 47 -61 85 -72 38 -11 148 -13 173 -4 32 12 15 24 -25 18
l-42 -7 23 31 c18 24 22 39 17 71 l-5 40 39 -16 c49 -19 63 -11 19 12 -86 44
-204 58 -267 30z m102 -45 c3 -5 1 -10 -4 -10 -6 0 -11 5 -11 10 0 6 2 10 4
10 3 0 8 -4 11 -10z"/>
<path d="M2325 2523 c-64 -14 -154 -67 -155 -91 0 -9 16 -2 42 17 23 17 45 31
49 31 4 0 5 -16 2 -36 -5 -27 -1 -42 17 -66 l23 -31 -42 6 c-43 5 -57 -7 -20
-18 64 -21 214 2 234 36 8 12 -7 11 -49 -6 -16 -7 -17 -6 -7 13 16 30 14 74
-5 100 -23 33 -12 37 47 18 50 -17 78 -14 49 5 -39 24 -127 35 -185 22z m-15
-57 c0 -3 -4 -8 -10 -11 -5 -3 -10 -1 -10 4 0 6 5 11 10 11 6 0 10 -2 10 -4z"/>
<path d="M2814 2307 c10 -7 28 -20 40 -29 l21 -17 -25 -48 c-31 -59 -67 -102
-94 -113 -20 -7 -20 -9 -3 -15 13 -6 28 1 51 24 34 33 86 127 86 155 0 20 -48
56 -74 55 -20 0 -20 -1 -2 -12z"/>
<path d="M1165 2288 l-26 -23 21 -92 c12 -50 28 -97 36 -104 20 -16 30 -3 14
16 -7 9 -21 52 -30 96 l-17 80 23 16 c24 16 32 33 15 33 -6 0 -22 -10 -36 -22z"/>
<path d="M1917 2182 c-15 -49 -27 -96 -27 -104 0 -9 20 -20 55 -30 43 -12 55
-13 55 -3 0 7 -15 16 -32 19 -60 11 -60 14 -33 106 28 92 29 100 17 100 -5 0
-21 -40 -35 -88z"/>
<path d="M2770 2232 c0 -6 6 -12 13 -15 19 -6 -4 -60 -31 -72 -28 -12 -29 -27
-1 -23 28 4 59 46 62 83 2 24 -2 31 -20 33 -13 2 -23 -1 -23 -6z"/>
<path d="M1215 2174 c-11 -12 -14 -26 -10 -48 8 -35 37 -65 44 -44 2 6 -1 14
-7 16 -15 5 -16 58 -2 67 13 8 13 25 1 25 -5 0 -17 -7 -26 -16z"/>
<path d="M2189 1874 c-11 -13 -41 -15 -221 -12 -114 2 -208 0 -208 -3 0 -16
43 -19 229 -19 179 0 199 2 214 18 10 10 17 22 17 25 0 12 -17 7 -31 -9z"/>
<path d="M1720 1379 c0 -42 80 -124 145 -148 87 -32 95 -34 95 -18 0 8 -25 23
-60 36 -68 25 -109 56 -140 106 -21 34 -40 46 -40 24z"/>
<path d="M2180 1010 c0 -38 0 -73 0 -77 0 -5 6 -8 13 -8 6 0 11 5 10 12 -4 19
15 63 27 63 5 0 10 -7 10 -15 0 -22 38 -39 56 -24 20 17 17 32 -6 26 -11 -3
-20 -1 -20 5 0 5 9 12 20 15 27 7 19 29 -9 26 -13 -2 -21 3 -21 12 0 17 -30
35 -59 35 -19 0 -21 -6 -21 -70z m50 36 c0 -3 -4 -8 -10 -11 -5 -3 -10 -1 -10
4 0 6 5 11 10 11 6 0 10 -2 10 -4z"/>
<path d="M2403 1051 c-3 -12 -9 -21 -14 -21 -5 0 -6 7 -3 15 11 28 -45 19 -57
-9 -23 -50 10 -98 52 -76 16 9 19 7 19 -10 0 -11 7 -20 15 -20 10 0 15 10 15
29 0 22 6 30 25 35 14 4 25 11 25 16 0 6 -11 10 -25 10 -14 0 -25 5 -25 10 0
6 12 10 26 10 37 0 25 24 -15 28 -26 3 -34 -1 -38 -17z m-30 -63 c-9 -15 -23
-8 -23 12 0 17 2 19 14 8 8 -7 12 -16 9 -20z"/>
<path d="M1627 1043 c-6 -9 -10 -49 -8 -76 1 -13 8 -17 24 -15 19 3 22 9 22
48 0 34 -4 46 -17 48 -9 2 -18 -1 -21 -5z"/>
<path d="M2272 919 c-18 -17 -51 -55 -73 -84 -34 -46 -39 -57 -29 -74 18 -34
46 -24 106 37 74 75 96 110 83 134 -14 27 -50 22 -87 -13z m58 -13 c0 -16
-118 -141 -126 -133 -10 9 17 50 64 100 48 49 62 57 62 33z"/>
<path d="M2014 885 c-8 -19 3 -35 26 -35 19 0 30 17 23 38 -6 17 -42 15 -49
-3z"/>
<path d="M3460 3095 c-24 -23 -28 -24 -85 -15 -75 12 -98 13 -90 1 3 -5 31
-13 63 -17 31 -3 60 -9 65 -11 4 -2 -14 -28 -39 -56 -118 -130 -110 -217 27
-292 63 -34 123 -38 163 -12 39 26 25 32 -27 12 -45 -17 -46 -17 -105 10 -33
15 -74 42 -92 60 -29 30 -32 39 -27 74 5 40 39 96 98 164 l34 38 53 -12 54
-13 -33 -27 c-19 -15 -31 -31 -27 -34 4 -4 25 8 47 25 l40 33 48 -18 c27 -10
52 -21 57 -26 20 -18 -93 -148 -143 -164 -26 -8 -51 10 -51 36 0 11 -4 19 -10
19 -15 0 -12 -33 6 -58 22 -31 54 -27 106 13 55 41 121 128 116 152 -2 10 -24
26 -53 37 -28 11 -52 22 -54 23 -3 2 8 17 24 33 41 43 22 50 -23 9 -36 -34
-39 -35 -82 -26 -25 6 -47 12 -49 14 -3 2 6 14 19 28 32 34 4 34 -30 0z"/>
<path d="M380 3055 c0 -8 5 -25 11 -39 10 -22 8 -28 -17 -50 -36 -31 -27 -44
10 -15 23 18 30 20 37 8 13 -21 12 -22 -36 -51 -25 -15 -45 -32 -45 -38 0 -6
3 -9 8 -7 187 117 228 144 229 152 2 14 -12 9 -72 -30 -47 -30 -55 -32 -66
-18 -11 13 -8 19 21 43 40 33 34 53 -6 21 -35 -28 -40 -27 -53 9 -11 32 -21
39 -21 15z"/>
<path d="M493 2928 c-9 -18 -16 -36 -15 -40 1 -5 -16 -8 -39 -8 -24 0 -38 -4
-34 -10 3 -5 16 -10 28 -10 17 0 13 -6 -20 -26 -24 -14 -43 -29 -43 -35 0 -14
6 -12 50 16 22 14 44 25 50 25 18 0 11 -28 -12 -44 -30 -21 -15 -33 16 -13 20
13 25 14 29 3 4 -9 -11 -25 -36 -42 -23 -15 -36 -29 -30 -31 7 -3 27 5 44 18
l31 22 24 -29 c25 -31 31 -21 13 20 -10 21 -8 28 22 55 20 18 28 31 20 31 -8
0 -25 -10 -38 -22 -17 -16 -26 -19 -35 -10 -8 8 -3 16 20 29 18 10 32 21 32
26 0 12 -23 8 -44 -8 -19 -15 -36 -12 -36 6 0 5 29 28 65 50 36 23 62 45 60
50 -3 4 -30 -7 -60 -27 -56 -35 -66 -35 -40 0 17 23 19 36 5 36 -5 0 -17 -15
-27 -32z"/>
<path d="M190 2902 c0 -20 93 -31 105 -12 3 6 -4 10 -18 10 -14 0 -39 3 -56 6
-18 4 -31 2 -31 -4z"/>
<path d="M260 2829 c-43 -26 -45 -28 -38 -35 4 -3 19 1 36 10 34 18 42 13 42
-25 0 -16 7 -32 17 -37 16 -9 15 -37 -3 -100 -6 -22 -5 -23 27 -18 19 4 82 10
141 15 84 7 114 14 138 31 32 23 83 91 94 128 12 38 -8 24 -33 -23 -31 -58
-81 -103 -123 -109 -18 -2 -74 -8 -125 -13 l-92 -8 6 57 c5 48 3 58 -9 58 -11
0 -18 14 -22 45 -4 25 -10 45 -14 45 -4 0 -23 -10 -42 -21z"/>
</g>
</svg>
