<?xml version="1.0" encoding="UTF-8" standalone="no"?>
<svg
   id="Logo_FIXED"
   data-name="Logo — FIXED"
   viewBox="0 0 400 400"
   version="1.1"
   sodipodi:docname="twitter.svg"
   inkscape:version="1.1 (c68e22c387, 2021-05-23)"
   xmlns:inkscape="http://www.inkscape.org/namespaces/inkscape"
   xmlns:sodipodi="http://sodipodi.sourceforge.net/DTD/sodipodi-0.dtd"
   xmlns="http://www.w3.org/2000/svg"
   xmlns:svg="http://www.w3.org/2000/svg">
  <sodipodi:namedview
     id="namedview13"
     pagecolor="#ffffff"
     bordercolor="#666666"
     borderopacity="1.0"
     inkscape:pageshadow="2"
     inkscape:pageopacity="0.0"
     inkscape:pagecheckerboard="0"
     showgrid="false"
     inkscape:zoom="1.8825"
     inkscape:cx="200"
     inkscape:cy="200"
     inkscape:window-width="2560"
     inkscape:window-height="1377"
     inkscape:window-x="-8"
     inkscape:window-y="-8"
     inkscape:window-maximized="1"
     inkscape:current-layer="Logo_FIXED" />
  <defs
     id="defs4">
    <style
       id="style2">.cls-1{fill:none;}.cls-2{fill:#1da1f2;}</style>
  </defs>
  <title
     id="title6">Twitter_Logo_Blue</title>
  <rect
     class="cls-1"
     width="400"
     height="400"
     id="rect8" />
  <path
     class="cls-2"
     d="m 125.792,362.51035 c 150.944,0 233.504,-125.056 233.504,-233.504 0,-3.552 0,-7.088 -0.24,-10.608 a 166.976,166.976 0 0 0 40.944,-42.48 163.808,163.808 0 0 1 -47.136,12.912 82.352,82.352 0 0 0 36.08,-45.392 164.464,164.464 0 0 1 -52.112,19.92 82.144,82.144 0 0 0 -139.856,74.848 A 232.992,232.992 0 0 1 27.84,52.46235 82.128,82.128 0 0 0 53.248,162.01435 81.456,81.456 0 0 1 16,151.74235 c 0,0.336 0,0.688 0,1.04 a 82.096,82.096 0 0 0 65.84,80.448 81.936,81.936 0 0 1 -37.056,1.408 82.16,82.16 0 0 0 76.672,56.992 164.672,164.672 0 0 1 -101.92,35.2 167.056,167.056 0 0 1 -19.536,-1.184 232.336,232.336 0 0 0 125.792,36.8"
     id="path10"
     style="stroke-width:1.6" />
</svg>
